<?xml version="1.0" encoding="utf-8"?>
<!-- Generator: Adobe Illustrator 19.2.0, SVG Export Plug-In . SVG Version: 6.00 Build 0)  -->
<svg version="1.1" xmlns="http://www.w3.org/2000/svg" xmlns:xlink="http://www.w3.org/1999/xlink" x="0px" y="0px"
	 viewBox="0 0 108 108" style="enable-background:new 0 0 108 108;" xml:space="preserve">
<style type="text/css">
	.st0{fill:#FFFFFF;}
</style>
<g id="Layer_2">
	<rect width="108" height="108"/>
</g>
<g id="Capa_1">
	<g>
		<path id="Twitter" class="st0" d="M76.3,76.5H54.1c-3.1,0-5.7-1.1-7.9-3.3c-2.2-2.2-3.2-4.8-3.2-7.9v-7.9h31.6
			c2.9,0,5.3-1,7.4-3.1c2-2.1,3.1-4.5,3.1-7.4c0-2.9-1-5.3-3.1-7.4c-2-2-4.5-3.1-7.4-3.1H42.9V20.3c0-3.1-1.1-5.7-3.3-7.9
			C37.5,10.1,34.8,9,31.8,9c-3.1,0-5.8,1.1-8,3.3c-2.2,2.2-3.3,4.8-3.3,8v45.1c0,9.3,3.3,17.2,9.8,23.8c6.6,6.6,14.5,9.9,23.7,9.9
			h22.2c3.1,0,5.7-1.1,7.9-3.3c2.2-2.2,3.3-4.8,3.3-7.9c0-3.1-1.1-5.7-3.3-7.9C82,77.6,79.3,76.5,76.3,76.5z"/>
	</g>
</g>
</svg>
