<?xml version="1.0" encoding="utf-8"?>
<!-- Generator: Adobe Illustrator 19.2.0, SVG Export Plug-In . SVG Version: 6.00 Build 0)  -->
<svg version="1.1" xmlns="http://www.w3.org/2000/svg" xmlns:xlink="http://www.w3.org/1999/xlink" x="0px" y="0px"
	 viewBox="0 0 517.1 517.1" style="enable-background:new 0 0 517.1 517.1;" xml:space="preserve">
<style type="text/css">
	.st0{stroke:#000000;stroke-miterlimit:10;}
	.st1{fill:#FFFFFF;}
</style>
<g id="Layer_2">
	<rect x="0.5" y="0.5" class="st0" width="516.1" height="516.1"/>
</g>
<g id="Capa_1">
	<g>
		<path id="Facebook" class="st1" d="M201.6,126.8c0,10.8,0,59.2,0,59.2h-43.4v72.4h43.4v215.2h89.1V258.4h59.8
			c0,0,5.6-34.7,8.3-72.7c-7.8,0-67.8,0-67.8,0s0-42.1,0-49.5c0-7.4,9.7-17.4,19.3-17.4c9.6,0,29.8,0,48.6,0c0-9.9,0-43.9,0-75.4
			c-25,0-53.5,0-66,0C199.4,43.5,201.6,116,201.6,126.8z"/>
	</g>
</g>
</svg>
