<?xml version="1.0" encoding="utf-8"?>
<!-- Generator: Adobe Illustrator 19.2.0, SVG Export Plug-In . SVG Version: 6.00 Build 0)  -->
<svg version="1.1" xmlns="http://www.w3.org/2000/svg" xmlns:xlink="http://www.w3.org/1999/xlink" x="0px" y="0px"
	 viewBox="0 0 108 108" style="enable-background:new 0 0 108 108;" xml:space="preserve">
<style type="text/css">
	.st0{fill:#FFFFFF;}
</style>
<g id="Layer_2">
	<rect width="108" height="108"/>
</g>
<g id="Capa_1">
	<g>
		<path id="SoundCloud" class="st0" d="M9,63c0,3,1.4,5.8,3.6,7.6V55.4C10.4,57.3,9,60,9,63 M16.3,53.4v19.2
			c0.9,0.2,1.8,0.4,2.8,0.4h1V53.1c-0.3,0-0.7,0-1,0C18.2,53,17.2,53.2,16.3,53.4 M24.7,54.7c-0.3-0.2-0.5-0.3-0.8-0.5V73h3.8V47.9
			C26.2,49.8,25.1,52.2,24.7,54.7 M31.4,44.3V73h3.8V42.5C33.9,42.9,32.6,43.6,31.4,44.3 M39,41.7V73h3.8V41.8
			c-0.8-0.1-1.6-0.2-2.4-0.2C39.9,41.7,39.4,41.7,39,41.7 M48.6,43.9c-1.2-0.7-2.6-1.3-4-1.7V73h5.7V41.6
			C49.7,42.4,49.1,43.1,48.6,43.9 M52.2,39.8V73H88v0c7.5-0.5,11-5.2,11-10.9c0-6-4.6-10.9-10.7-10.9c-1.6,0-2.9,0.3-4.2,0.9
			c-1-9.6-9.1-17.1-19.1-17.1C60,35,55.6,36.8,52.2,39.8"/>
	</g>
</g>
</svg>
