<?xml version="1.0" encoding="utf-8"?>
<!-- Generator: Adobe Illustrator 19.2.0, SVG Export Plug-In . SVG Version: 6.00 Build 0)  -->
<svg version="1.1" xmlns="http://www.w3.org/2000/svg" xmlns:xlink="http://www.w3.org/1999/xlink" x="0px" y="0px"
	 viewBox="0 0 540.6 540.6" style="enable-background:new 0 0 540.6 540.6;" xml:space="preserve">
<style type="text/css">
	.st0{fill:#FFFFFF;}
</style>
<g id="Layer_2">
	<rect width="540.6" height="540.6"/>
</g>
<g id="Capa_1">
	<g>
		<polygon class="st0" points="45.1,346.7 226.5,346.7 297,194.1 115.6,194.1 		"/>
		<g>
			<path class="st0" d="M346.7,231.9c-12.6,0.2-23.3,5.4-31.2,16.7h-0.4v-53.9H297v148.1h17.1v-13.4h0.4c3.7,6,11.3,16.5,29.7,16.5
				c36.7,0,47.5-34.5,47.5-60.2C391.7,255.4,375.4,231.9,346.7,231.9z M343.9,330.3c-11.5,0-29.5-7.6-29.5-36.3
				c0-17.5,2.9-45.8,29.1-45.8c28.1,0,29.5,26.6,29.5,40.4C372.9,312.4,363.7,330.3,343.9,330.3z"/>
			<path class="st0" d="M452.5,248.2c15.3,0,23.3,8.7,25.6,23.1h17.5c-1.4-18.8-12.2-39.4-40.4-39.4c-35.7,0-51.8,26.6-51.8,60
				c0,31.2,17.9,54.1,48.3,54.1c31.6,0,42.1-24.1,43.9-41.3h-17.5c-3.1,16.5-13.6,25.6-25.8,25.6c-25,0-29.5-22.9-29.5-41.5
				C422.8,269.7,430,248.2,452.5,248.2z"/>
		</g>
	</g>
</g>
</svg>
