<!-- Generator: Adobe Illustrator 19.2.0, SVG Export Plug-In  -->
<svg version="1.1"
	 xmlns="http://www.w3.org/2000/svg" xmlns:xlink="http://www.w3.org/1999/xlink" xmlns:a="http://ns.adobe.com/AdobeSVGViewerExtensions/3.0/"
	 x="0px" y="0px" viewBox="0 0 746.3 112.1" style="enable-background:new 0 0 746.3 112.1;"
	 xml:space="preserve">
<style type="text/css">
	.st0{fill:#FFFFFF;}
</style>
<defs>
</defs>
<g>
	<g>
		<path class="st0" d="M61.9,56.1h10.2l5.8-5.2l8.5,2.4l16.5-22.5c-0.8-1.5-1.6-3-2.6-4.4l-27.7,3l-2.3,8.3l-7.7,2.6
			c-0.3-0.2-0.7-0.4-1-0.6l-1.7-7.8l6.4-6.2L54.9,0c-0.2,0-0.5,0-0.7,0v47.3l7.6,4.4L61.9,56.1z"/>
		<path class="st0" d="M24.9,51.1l5.6,5H41l0-4.3l7.7-4.5l0-47.2c-0.2,0-0.5,0-0.7,0L36.7,25.6l6.1,6.2l-1.6,7.9
			c-0.3,0.2-0.7,0.4-1,0.6l-7.6-2.4l-2.2-8.6l-27.7-3c-0.9,1.4-1.8,2.9-2.6,4.4l16.5,22.5L24.9,51.1z"/>
	</g>
	<g>
		<path class="st0" d="M78.1,61.1l-5.6-5H61.9l0,4.9l-7.7,4.5v46.7c0.2,0,0.5,0,0.7,0l11.3-25.5l-6.1-6.2l1.6-7.9
			c0.3-0.2,0.7-0.4,1-0.6l7.6,2.4l2.2,8.6l27.7,3c0.9-1.4,1.8-2.9,2.6-4.4L86.4,58.9L78.1,61.1z"/>
		<path class="st0" d="M41,56.1H30.8L25,61.3l-8.5-2.4L0,81.5c0.8,1.5,1.6,3,2.6,4.4l27.7-3l2.3-8.3l7.7-2.6c0.3,0.2,0.7,0.4,1,0.6
			l1.7,7.8l-6.4,6.2L48,112.1c0.2,0,0.5,0,0.7,0V65.4L41,61.1L41,56.1z"/>
	</g>
</g>
<g>
	<polygon class="st0" points="55.9,53.4 51.5,50.8 47,53.4 47,56 55.9,56 	"/>
	<polygon class="st0" points="47,55.9 47,58.5 51.5,61.1 55.9,58.5 55.9,55.9 	"/>
</g>
<g>
	<g>
		<path class="st0" d="M150.4,85.3V71.8h30.4l3.4-3.4v-6.8h-33.8v-27l3.4-3.4l3.4-3.4l3.4-3.4h37.1V38h-30.4l-3.4,3.4v6.8h33.8v23.6
			l-3.4,3.4l-3.4,3.4l-3.4,3.4l-3.4,3.4H150.4z"/>
		<path class="st0" d="M247.5,85.3V24.5h47.3V38H261v10.1h33.8v13.5H261v10.1h33.8v13.5H247.5z"/>
		<path class="st0" d="M344.6,85.3V24.5h33.8l3.4,3.4l3.4,3.4l3.4,3.4l3.4,3.4v47.2h-13.5V41.4l-3.4-3.4h-16.9v47.2H344.6z"/>
		<path class="st0" d="M441.6,85.3V24.5h33.8l3.4,3.4l3.4,3.4l3.4,3.4l3.4,3.4v47.2h-13.5V41.4L472,38h-16.9v47.2H441.6z"/>
		<path class="st0" d="M538.7,85.3V24.5h47.3v60.7h-13.5V61.7h-20.3v23.6H538.7z M572.4,48.2V38h-20.3v10.1H572.4z"/>
		<path class="st0" d="M635.8,85.3V24.5H683V38h-33.8v47.2H635.8z"/>
		<path class="st0" d="M732.8,85.3V24.5h13.5v60.7H732.8z"/>
	</g>
</g>
</svg>
